<svg width="15" height="11" viewBox="0 0 15 11" fill="none" xmlns="http://www.w3.org/2000/svg">
<path d="M4.43684 7.38324C5.64534 7.38324 6.8581 7.38324 8.0666 7.38324C8.21606 7.38324 8.36125 7.39107 8.4253 7.53589C8.48936 7.68463 8.38687 7.77858 8.28011 7.87252C8.0239 8.09954 7.77195 8.33048 7.52427 8.56142C7.18692 8.87848 7.18692 9.28556 7.53281 9.60261C7.95984 9.99403 8.39114 10.3855 8.82671 10.7691C9.16834 11.0744 9.60818 11.0783 9.94553 10.773C11.4658 9.38341 12.9903 7.98994 14.5019 6.59256C15.1596 5.98586 15.1681 5.02687 14.5148 4.42408C12.986 3.00712 11.4444 1.60974 9.9071 0.204529C9.60818 -0.0655528 9.15126 -0.069467 8.84806 0.200615C8.38687 0.607696 7.93422 1.0226 7.49011 1.44534C7.18692 1.735 7.19546 2.13816 7.50292 2.42782C7.76341 2.67441 8.03671 2.91709 8.30574 3.15978C8.40395 3.24589 8.48082 3.33983 8.4253 3.469C8.36552 3.606 8.23741 3.62557 8.09222 3.62557C5.69231 3.62166 3.29667 3.62557 0.896763 3.62166C0.303191 3.62166 -9.53674e-07 3.89174 -9.53674e-07 4.43582C-9.53674e-07 5.15995 -9.53674e-07 5.88409 -9.53674e-07 6.60822C-9.53674e-07 7.0975 0.316003 7.38324 0.849791 7.38324C2.04548 7.38324 3.24116 7.38324 4.43684 7.38324Z" fill="white"/>
</svg>
