<svg width="15" height="11" viewBox="0 0 15 11" fill="none" xmlns="http://www.w3.org/2000/svg">
<path d="M10.5632 7.38324C9.35466 7.38324 8.1419 7.38324 6.9334 7.38324C6.78394 7.38324 6.63875 7.39107 6.5747 7.53589C6.51064 7.68463 6.61313 7.77858 6.71989 7.87252C6.9761 8.09954 7.22805 8.33048 7.47573 8.56142C7.81308 8.87848 7.81308 9.28556 7.46719 9.60261C7.04016 9.99403 6.60886 10.3855 6.17329 10.7691C5.83166 11.0744 5.39182 11.0783 5.05447 10.773C3.53424 9.38341 2.00974 7.98994 0.498057 6.59256C-0.15957 5.98586 -0.168111 5.02687 0.485246 4.42408C2.01401 3.00712 3.55559 1.60974 5.0929 0.204529C5.39182 -0.0655528 5.84874 -0.069467 6.15194 0.200615C6.61313 0.607696 7.06578 1.0226 7.50989 1.44534C7.81308 1.735 7.80454 2.13816 7.49708 2.42782C7.23659 2.67441 6.96329 2.91709 6.69426 3.15978C6.59605 3.24589 6.51918 3.33983 6.5747 3.469C6.63448 3.606 6.76259 3.62557 6.90778 3.62557C9.30769 3.62166 11.7033 3.62557 14.1032 3.62166C14.6968 3.62166 15 3.89174 15 4.43582C15 5.15995 15 5.88409 15 6.60822C15 7.0975 14.684 7.38324 14.1502 7.38324C12.9545 7.38324 11.7588 7.38324 10.5632 7.38324Z" fill="white"/>
</svg>
