<svg width="99" height="60" viewBox="0 0 99 60" fill="none" xmlns="http://www.w3.org/2000/svg">
<path d="M17.5948 60L23.9289 59.3104H27.2133L30.7322 59.7701L35.1896 56.3218L40.5853 41.8391L41.2891 38.3908L42.2275 36.0919L45.981 24.3678V18.3908L45.2772 14.9425L44.1043 12.1839L42.2275 8.96552L40.3507 6.66667L38.0047 4.82758L35.4242 2.98851L29.3247 0.459763L26.2749 0L19.4716 0.459763L16.1872 0.229882L13.6066 2.06897L7.50712 4.5977L5.39574 6.66667L1.87678 11.954L0 17.931V24.1379L0.469205 27.5862L1.87678 30.8046L3.75355 33.1035L7.50712 37.4713L13.1374 40.9196L15.2488 44.8276L14.7796 47.1264L13.372 50.3448L12.6682 53.7931L11.2607 56.3218L14.0758 59.3104L17.5948 60ZM69.9099 60L73.4289 59.3104L76.7133 59.7701L83.7512 60L87.7393 57.0115L89.3815 53.7931L91.0237 47.3563L92.4313 44.3678L96.654 32.6437L98.0616 27.1264L99 24.3678L98.7654 17.931L98.2962 15.1724L96.8886 11.7241L93.1351 6.43679L90.7891 4.36782L85.1588 1.60919L78.5901 0.459763L72.2559 0.229882L65.9218 1.37931L60.2915 4.36782L56.0687 9.42528L54.6611 11.954L53.4881 14.7126L53.0189 17.7011L52.7844 24.5977L56.3033 33.3333L58.1801 35.8621L63.1066 39.5402L66.391 40.6897L68.5024 44.3678L67.0948 47.1264L65.4526 53.3333L64.2796 56.5517L67.0948 59.7701L69.9099 60ZM24.3981 6.89655L23.9289 4.5977L26.2749 4.36782L26.7441 6.89655H24.3981ZM14.3104 5.74713V4.5977H15.718V5.74713H14.3104ZM76.9479 6.66667V5.05746H78.5901V6.66667H76.9479ZM66.6256 6.20689L66.391 5.51725L67.0948 5.28736L67.3294 5.97701L66.6256 6.20689ZM15.2488 28.046L13.6066 26.6667V25.5172L15.0142 23.6782L15.9526 22.7586L16.4218 22.069L17.8294 19.7701L19.4716 18.1609L20.6446 17.7011L22.9905 17.2414L23.2251 16.092L22.9905 14.9425L21.3483 13.3333L20.1754 12.6437L18.2986 11.2644L18.064 10.1149L19.4716 8.04598L20.41 7.8161L21.5829 8.04598L23.2251 9.88507L23.9289 11.0345L24.8673 12.1839L25.5711 12.8736L27.2133 15.1724V16.5517L26.5095 17.7011L24.6327 19.3104L23.9289 20.2299L23.4597 21.3793L23.2251 22.7586L24.1635 23.6782L25.3365 23.4483L26.5095 23.6782L27.2133 24.5977L27.4479 27.1264L25.1019 27.5862L24.1635 27.1264L23.4597 25.977L23.2251 24.8276L21.8175 23.6782L20.6446 23.9081L19.4716 24.3678L17.8294 25.977L16.4218 27.8161L15.2488 28.046ZM71.7867 11.0345L71.3175 8.50574L73.6635 8.27586L73.8981 10.5747L71.7867 11.0345ZM81.1706 11.954L80.936 9.65517L81.6398 8.73564H84.2204L84.455 11.0345L83.7512 11.954H81.1706ZM5.39574 16.3218L4.45735 14.2529L6.56873 12.1839L7.27251 11.2644L8.9147 8.96552L11.4953 9.88507L11.9644 11.954L11.4953 12.8736L9.38389 14.023L8.44549 14.4827L6.33413 15.6322L5.39574 16.3218ZM29.3247 11.4943L29.5592 8.96552L31.9052 9.1954L31.6706 11.4943H29.3247ZM62.872 11.7241L60.9953 11.2644L61.699 9.1954L63.3412 9.88507L62.872 11.7241ZM78.5901 17.7011L76.2441 17.4713L75.5403 16.7816L76.0095 14.2529L76.9479 13.1034H79.2939L79.9976 14.023V16.3218L79.2939 17.4713L78.5901 17.7011ZM40.8199 22.069L38.9431 20L38.2393 18.8506L37.3009 18.1609L36.128 17.4713L34.2512 16.092L34.955 13.5632H36.8318L38.2393 15.1724L39.1777 16.092L40.1161 17.2414L41.0545 17.931L42.4621 20.2299L40.8199 22.069ZM68.5024 16.3218L66.391 15.6322L66.6256 13.5632L68.7369 14.023L68.5024 16.3218ZM88.9123 17.0115L87.0355 16.5517L87.5048 14.023L89.8507 13.5632L89.6161 16.092L88.9123 17.0115ZM14.0758 17.931L13.372 17.4713L13.1374 14.9425L14.0758 14.023L16.4218 13.7931L17.1256 14.7126L17.3602 17.0115L16.4218 17.7011L14.0758 17.931ZM60.7607 20.9195L60.5261 17.931L63.3412 17.7011L63.5758 20.4598L60.7607 20.9195ZM8.6801 21.6092V18.8506L11.4953 18.6207V21.6092H8.6801ZM29.09 21.8391V19.0805L31.6706 18.8506L31.9052 21.6092L29.09 21.8391ZM82.5782 22.7586L81.6398 22.2988V19.7701L84.2204 19.0805L84.9242 20V22.5287L82.5782 22.7586ZM92.4313 21.6092L92.1967 19.7701L94.3081 19.5402V21.1494L92.4313 21.6092ZM73.8981 22.5287L71.5521 22.2988L71.7867 19.7701L74.3673 20L73.8981 22.5287ZM66.391 26.2069V23.6782L68.7369 23.9081L68.5024 26.2069H66.391ZM34.955 26.8965L34.7204 24.3678L36.8318 23.9081L37.3009 26.4368L34.955 26.8965ZM79.2939 27.3563L76.4787 27.1264L76.2441 24.3678L78.8246 23.9081L79.5284 24.5977L79.2939 27.3563ZM88.9123 26.8965L86.5663 26.4368L87.2701 23.9081L89.8507 24.1379V26.4368L88.9123 26.8965ZM3.98816 26.8965L3.75355 24.8276L5.86493 24.5977L6.09952 26.8965H3.98816ZM61.699 32.4138L59.8223 30.1149L58.8839 28.5058L57.7109 28.046L57.0071 27.1264L56.5379 26.2069L57.0071 24.5977L58.1801 25.0575L58.6493 26.2069L58.8839 27.3563V28.5058H60.5261L63.3412 28.7356L64.045 31.4942L61.699 32.4138ZM24.3981 37.2414L23.9289 34.9425L26.0403 33.5632L26.9787 32.8736L27.9171 31.954L28.6209 29.4253L29.09 28.5058L30.0284 28.046L32.1398 28.7356L32.609 30.1149V31.2644L31.6706 33.5632L30.4976 34.2529L29.5592 34.9425L28.6209 35.8621L26.2749 37.2414H24.3981ZM21.1137 32.8736L18.7678 32.4138L19.0024 29.6552L19.7062 28.7356L22.0521 29.1954V31.7241L21.1137 32.8736ZM10.7915 32.6437L8.6801 31.954V29.1954L11.7299 29.4253V31.954L10.7915 32.6437ZM73.4289 32.1839L71.3175 31.954L71.5521 29.4253L73.6635 29.8851L73.4289 32.1839ZM92.6659 31.7241L92.4313 29.4253H94.5427L94.7772 31.7241H92.6659ZM41.2891 31.7241L39.8815 31.4942L40.1161 29.8851L41.5237 30.1149L41.2891 31.7241ZM82.109 32.6437L81.8744 30.1149L84.455 29.8851V32.6437H82.109ZM34.955 38.1609L34.0166 37.2414V34.4828L36.3626 34.023L37.5356 34.9425L37.3009 37.7012L34.955 38.1609ZM66.391 37.0115L66.1564 34.4828L68.5024 34.2529V36.7816L66.391 37.0115ZM76.4787 37.4713L76.2441 34.4828H79.0592L79.2939 37.2414L76.4787 37.4713ZM89.1469 37.4713L86.5663 37.2414V34.7126L89.3815 34.9425L89.1469 37.4713ZM14.3104 37.2414L14.0758 35.4023L15.718 35.1724L16.1872 37.0115L14.3104 37.2414ZM29.7938 42.2989L28.6209 41.6092L28.3862 40.2299V38.8506L30.0284 38.1609L31.2014 37.931L32.3744 38.6207L33.0782 40.9196L32.3744 41.8391L29.7938 42.2989ZM71.5521 42.069L70.8483 40.9196L71.3175 38.6207H73.6635L74.3673 39.3103L73.8981 42.069H71.5521ZM83.7512 43.2184L81.4052 42.9885L80.7014 42.069L80.936 39.5402L81.8744 38.6207H84.455L85.1588 39.0805L84.9242 41.6092L84.455 42.5287L83.7512 43.2184ZM21.5829 43.2184L19.0024 42.9885V40L21.3483 39.0805L22.2867 40L22.5213 42.2989L21.5829 43.2184ZM25.1019 47.5862L24.3981 46.6667L23.9289 44.1379L26.2749 43.908L27.2133 44.3678L27.4479 47.1264L25.1019 47.5862ZM34.955 46.4368L34.7204 45.0575L36.128 44.5977L36.3626 46.4368H34.955ZM76.7133 47.1264L76.2441 44.5977H78.8246L79.0592 46.8966L76.7133 47.1264ZM88.9123 47.1264L87.0355 46.6667L87.5048 44.5977L89.3815 45.0575L88.9123 47.1264ZM31.6706 52.8736L29.3247 52.6437L29.09 50.115L30.0284 49.4253H32.3744V51.954L31.6706 52.8736ZM78.1209 57.2414L76.9479 57.0115L76.7133 55.4023L78.1209 54.4828L80.7014 51.954L81.4052 50.8046L83.0474 49.4253L84.455 50.5747L83.5166 52.6437L82.5782 53.5632L81.4052 54.4828L80.4668 55.1724L79.5284 56.092L78.1209 57.2414ZM19.237 52.4138L19.0024 49.8851L21.1137 49.6552L21.3483 52.1839L19.237 52.4138ZM71.7867 51.7241L71.3175 49.8851L73.4289 50.115V51.7241H71.7867ZM24.6327 56.5517V54.2529L26.7441 54.4828V56.5517H24.6327Z" fill="#D8E1DD"/>
</svg>
