<svg width="13" height="13" viewBox="0 0 13 13" fill="none" xmlns="http://www.w3.org/2000/svg">
<path d="M5.21246 7.51936C3.64451 5.93615 2.07403 4.35548 0.506035 2.76715C-0.0899415 2.16538 -0.165589 1.27583 0.311509 0.659787C0.851401 -0.0351532 1.73045 -0.199591 2.46732 0.254754C2.58461 0.327444 2.69192 0.420546 2.78911 0.518689C5.91224 3.67219 9.03792 6.82827 12.161 9.98177C12.7647 10.5913 12.8406 11.5116 12.3485 12.1582C11.8639 12.7922 10.9824 12.9591 10.2738 12.5486C10.1438 12.4732 10.0263 12.38 9.91889 12.2716C8.34837 10.6858 6.78042 9.10256 5.21246 7.51936Z" fill="#32AB77"/>
<path d="M7.79725 7.73684C6.2293 9.32005 4.66386 10.9058 3.09083 12.489C2.49485 13.0908 1.61386 13.1672 1.00376 12.6855C0.315511 12.1403 0.152657 11.2527 0.602626 10.5087C0.674616 10.3903 0.766821 10.2819 0.864019 10.1838C3.98714 7.03026 7.11282 3.87418 10.2359 0.720676C10.8396 0.111154 11.751 0.0345237 12.3915 0.531385C13.0193 1.02066 13.1846 1.9108 12.778 2.6263C12.7034 2.75757 12.6111 2.87616 12.5037 2.98464C10.9332 4.57043 9.36521 6.15363 7.79725 7.73684Z" fill="#32AB77"/>
</svg>
