<svg width="14" height="14" viewBox="0 0 14 14" fill="none" xmlns="http://www.w3.org/2000/svg">
<path d="M13.9938 10.2646C13.9376 11.6519 13.4695 12.6898 12.5271 13.4683C11.981 13.9207 11.3537 14.0604 10.6765 13.9773C9.66539 13.8509 8.73229 13.4483 7.7836 13.089C5.7801 12.3272 4.15733 10.9832 2.73741 9.3331C1.97907 8.44818 1.28004 7.52001 0.737032 6.47208C0.262684 5.56387 -0.0369045 4.59578 0.00366476 3.54119C0.0504754 2.32359 0.502979 1.30227 1.35805 0.493863C2.04461 -0.154858 3.07757 -0.0883226 3.70171 0.257662C3.97633 0.410694 4.15733 0.653548 4.27592 0.952958C4.59423 1.76469 4.90942 2.57642 5.24334 3.3815C5.38065 3.71085 5.43994 4.03355 5.31199 4.37621C5.20589 4.65233 5.0717 4.91515 4.88446 5.14469C4.77835 5.27444 4.67225 5.40418 4.57239 5.53725C4.41323 5.74684 4.40075 5.9531 4.54118 6.17932C5.43682 7.64643 6.61333 8.76755 8.13 9.46285C8.42958 9.59924 8.60434 9.55932 8.81343 9.28653C9.06933 8.95052 9.32523 8.61452 9.57801 8.27851C9.85263 7.9159 10.2334 7.79946 10.6859 7.9658C11.2569 8.17538 11.7843 8.4881 12.3305 8.75757C12.6738 8.92723 13.017 9.10023 13.3572 9.27655C13.7878 9.50609 14.0437 9.84542 13.9938 10.2646Z" fill="url(#paint0_linear)"/>
<defs>
<linearGradient id="paint0_linear" x1="7" y1="0" x2="20.3115" y2="11.0929" gradientUnits="userSpaceOnUse">
<stop stop-color="#32AB77"/>
<stop offset="1" stop-color="#1F983A"/>
</linearGradient>
</defs>
</svg>
