<svg width="233" height="233" viewBox="0 0 233 233" fill="none" xmlns="http://www.w3.org/2000/svg">
<path d="M142.892 67.4428C142.372 64.488 142.372 61.707 143.586 59.6213C149.133 50.0616 152.773 67.0952 156.414 63.2713C160.401 59.2737 154.507 47.8021 160.747 41.371C166.468 35.6352 171.322 41.7186 172.015 49.1926C172.189 50.5831 175.309 52.1474 176.869 49.3664C177.389 48.4973 185.19 29.2042 193.858 38.0686C194.031 38.2424 194.204 38.4162 194.378 38.59C194.551 38.7638 194.724 38.9376 194.898 39.1115C203.739 47.9759 184.497 55.7974 183.63 56.145C180.856 57.7093 182.243 60.838 183.803 61.0118C191.084 61.707 197.325 66.7476 191.604 72.3096C185.19 78.7406 173.749 72.831 169.762 76.6549C165.948 80.4787 183.11 84.1288 173.402 89.517C171.322 90.7336 168.548 90.7337 165.601 90.2122M165.601 90.2122C165.081 84.6502 161.788 80.4787 156.24 83.955C154.68 84.9978 153.467 86.5622 152.6 88.1265C149.653 93.8623 150.693 102.031 147.053 104.291C145.319 105.334 144.279 103.596 143.239 101.336M165.601 90.2122C165.601 90.386 165.601 90.5598 165.601 90.7337C165.601 91.7765 165.601 92.9932 165.428 94.2099C165.255 95.6004 168.028 97.8599 170.108 95.4266C170.802 94.7313 182.763 77.6977 189.351 88.4741C189.351 88.6479 189.697 88.8217 189.871 89.1693C190.044 89.517 190.217 89.8646 190.391 89.8646C191.431 91.6027 191.777 93.167 191.604 94.3837C191.431 95.2528 191.084 96.1218 190.564 96.9909C188.83 99.4243 185.19 101.162 181.896 102.205C178.603 103.248 175.656 103.77 175.309 103.77C172.189 104.639 172.882 107.941 174.269 108.462C181.203 110.896 186.057 117.153 179.123 121.325C175.309 123.584 171.149 122.715 167.161 121.672C163.001 120.456 159.187 119.065 156.76 120.456C153.12 122.715 162.308 127.929 160.921 131.406M86.726 135.577C86.5526 133.144 86.0325 130.537 85.5125 128.277C84.4724 123.237 83.4323 118.37 85.3391 115.067C91.4065 104.465 95.3936 123.237 99.554 119.065C101.634 116.979 101.114 112.808 100.941 108.289C100.768 105.681 100.768 103.074 101.461 100.467C101.981 98.5552 102.848 96.6433 104.408 95.079C105.448 94.0361 106.315 93.5146 107.182 92.9932C108.742 92.298 110.129 92.4718 111.515 93.167C113.076 94.0361 114.462 95.7742 115.502 97.8599C116.196 99.5981 116.716 101.51 116.889 103.596C117.063 105.16 120.53 106.898 122.263 103.77C122.437 103.422 123.823 100.12 126.077 96.6433C127.984 93.5146 130.584 90.386 133.531 89.3432C135.958 88.4741 138.385 88.6479 141.159 91.4289C141.332 91.6027 141.505 91.7765 141.679 91.9503C141.852 92.1241 142.199 92.4718 142.199 92.4718C144.799 95.079 145.146 97.6861 144.279 100.12C143.065 103.074 139.945 105.681 136.998 107.593C133.531 109.853 130.237 111.243 129.891 111.417C126.77 113.155 128.504 116.632 130.064 116.805C132.144 116.979 134.051 117.501 135.785 118.196C138.038 119.065 139.772 120.456 140.465 122.194C141.159 123.41 141.332 124.975 140.639 126.539C140.292 127.408 139.598 128.451 138.558 129.32C136.998 130.884 135.091 131.753 133.184 132.275C130.757 132.97 127.984 132.796 125.384 132.796C120.876 132.622 116.716 132.101 114.636 134.187C110.475 138.358 129.197 142.356 118.623 148.439C115.329 150.351 110.475 149.308 105.448 148.265C103.021 147.744 100.594 147.223 98.1672 147.049M77.0182 184.418C77.3649 186.156 78.405 187.721 79.7919 188.59C86.726 192.761 91.2331 201.626 97.1271 202.147C108.222 203.016 96.087 190.328 101.288 189.285C106.835 188.242 112.902 199.54 121.743 197.976C124.517 197.454 125.904 196.238 126.597 194.673C127.81 191.718 125.557 187.373 121.743 184.245C120.53 183.376 121.05 179.725 124.343 180.073C125.384 180.247 145.666 184.418 143.239 172.252C143.239 172.078 143.065 171.73 143.065 171.382C143.065 171.035 142.892 170.687 142.892 170.513C142.545 168.601 141.679 167.211 140.639 166.342C140.118 165.994 139.772 165.647 139.078 165.473C135.958 164.256 131.798 165.647 128.331 167.211C126.944 167.732 125.904 168.428 124.863 168.949M49.1085 156.435C47.375 156.087 45.8148 155.044 44.948 153.654C40.7876 146.701 31.9466 142.182 31.4266 136.272C30.5598 125.148 43.2145 137.315 44.2546 132.101C45.2948 126.539 34.0268 120.456 35.587 111.591C36.1071 108.81 37.3205 107.42 38.8807 106.724C41.8277 105.508 46.1615 107.767 49.2819 111.591C50.1486 112.808 53.789 112.286 53.4423 108.984C53.4423 107.941 49.1085 87.605 61.4165 89.8646C61.5899 89.8646 61.9366 90.0384 62.2833 90.0384C62.63 90.0384 62.9767 90.2122 63.15 90.2122C65.0569 90.5598 66.4437 91.4289 67.3105 92.4718C67.6572 92.9932 68.0039 93.3408 68.1773 94.0361C69.3907 97.1647 68.0039 101.336 66.4437 104.812C65.9237 106.203 65.2303 107.246 64.7102 108.289M119.143 166.69C119.143 166.516 119.316 166.516 119.316 166.342M119.143 166.69L118.97 166.516C119.143 166.516 119.143 166.342 119.316 166.342M119.143 166.69C120.703 167.906 122.263 168.601 123.997 168.775C124.517 168.775 124.863 168.775 125.21 168.775C127.29 168.775 128.331 168.08 128.677 167.037C129.371 165.125 127.81 161.997 127.117 159.563C126.597 157.651 126.424 156.261 128.157 155.913C129.024 155.739 129.891 155.913 130.757 156.261C133.531 157.304 136.478 160.085 139.772 162.344C141.679 163.561 143.586 164.43 145.666 164.778M119.316 166.342C122.09 160.085 121.05 153.306 113.596 154.697C111.689 155.044 110.302 155.913 108.915 156.956M108.915 156.956C103.888 161.128 102.154 169.471 97.8205 170.34C96.4337 170.687 95.7403 169.644 95.5669 168.08M108.915 156.956C108.048 156.261 107.355 155.739 106.488 155.218C105.101 154.349 104.061 152.958 103.714 151.22L103.541 150.525C103.368 149.482 103.368 148.439 103.714 147.57M66.7904 114.198C66.9638 114.198 66.9638 114.024 67.1371 114.024M66.7904 114.198L66.9638 114.372C66.9638 114.198 67.1371 114.198 67.1371 114.024M66.7904 114.198C65.577 112.634 64.8836 111.07 64.7102 109.332C64.7102 108.81 64.7102 108.462 64.7102 108.115C64.7102 106.029 65.4036 104.986 66.4437 104.639C68.3506 103.943 71.471 105.508 73.8979 106.203C75.8048 106.724 77.1916 106.898 77.5383 105.16C77.7116 104.291 77.5383 103.422 77.1916 102.553C76.1515 99.7719 73.3778 96.8171 71.1242 93.5146C69.9108 91.6027 69.044 89.6908 68.6973 87.605M67.1371 114.024C73.3778 111.243 80.1386 112.286 78.7517 119.76C78.405 121.672 77.5383 123.063 76.4982 124.453C72.3377 129.494 64.0168 131.232 63.15 135.577C62.8033 136.968 63.8435 137.663 65.4036 137.837M126.77 194.499C127.117 194.673 127.464 195.021 127.81 195.195C137.692 200.235 131.451 183.897 136.651 185.114C142.025 186.33 143.412 199.192 152.253 201.104C160.227 202.842 160.921 195.021 157.627 188.416C156.934 187.199 158.841 184.071 161.614 185.635C162.481 186.156 179.469 197.976 182.07 185.809C182.07 185.635 182.243 185.287 182.243 184.94C182.243 184.592 182.416 184.245 182.416 184.071C185.017 171.904 164.561 175.728 163.694 175.902C160.574 176.249 160.054 172.599 161.267 171.73C162.828 170.513 164.214 168.949 165.081 167.385C167.508 163.387 167.161 159.216 161.441 157.999C160.401 157.825 159.534 157.825 158.667 157.825C156.934 157.999 155.373 158.52 153.987 159.216C151.04 160.78 148.266 163.039 145.839 164.604C144.106 165.647 142.545 166.342 140.985 166.168C140.812 166.168 140.812 166.168 140.639 166.168C139.945 165.994 139.598 165.82 139.425 165.299M39.0541 106.551C38.8807 106.203 38.534 105.855 38.3607 105.508C33.3334 95.6004 49.6286 101.858 48.4151 96.6433C47.2016 91.2551 34.3735 89.8646 32.4667 81.0002C30.7331 73.0048 38.534 72.3096 45.1214 75.612C46.3349 76.3072 49.4552 74.3953 47.895 71.6143C47.375 70.7453 35.587 53.7117 47.7217 51.1045C47.895 51.1045 48.2417 50.9307 48.5884 50.9307C48.9351 50.9307 49.2819 50.7569 49.4552 50.7569C61.5899 48.1497 57.7761 68.6595 57.6028 69.5286C57.2561 72.6572 60.8965 73.1786 61.7632 71.9619C62.9767 70.3976 64.5369 69.0071 66.097 68.1381C70.0841 65.7047 74.2446 66.0523 75.4581 71.7881C75.6314 72.831 75.6314 73.7001 75.6314 74.5691C75.4581 76.3072 74.938 77.8716 74.2446 79.2621C72.6844 82.2169 70.4308 84.9978 68.8707 87.4312C67.8306 89.1693 67.1371 90.7337 67.3105 92.298C67.3105 92.4718 67.3105 92.4718 67.3105 92.6456C67.4838 93.3408 67.6572 93.6885 68.1773 93.8623M165.948 132.101C167.335 130.537 168.895 129.32 170.802 128.799C171.322 128.625 171.669 128.625 172.189 128.451C174.616 128.103 175.656 128.972 176.002 130.189C176.869 133.665 173.402 140.444 177.216 140.618C179.643 140.618 181.896 138.184 184.323 135.577C186.75 132.97 189.524 130.015 193.164 128.972C194.031 128.798 194.898 128.625 195.938 128.625C204.086 128.799 203.045 136.62 198.192 142.182C197.151 143.225 198.365 146.701 201.485 145.832C202.352 145.484 221.767 137.837 221.421 150.351C221.421 150.525 221.421 150.873 221.421 151.22C221.421 151.568 221.421 151.916 221.421 152.089C221.247 164.604 202.179 156.087 201.312 155.739C198.192 154.697 196.978 157.999 197.845 159.216C202.352 164.951 203.045 172.773 195.071 172.773C186.057 172.599 182.416 160.085 176.869 160.085C171.495 159.911 180.683 174.859 170.108 171.73C168.202 171.209 166.468 169.644 165.081 167.732M101.288 67.269C102.848 65.8785 104.061 64.3142 104.581 62.4023C104.755 61.8808 104.755 61.5332 104.928 61.0118C105.275 58.5784 104.408 57.5355 103.194 57.1879C99.7274 56.3189 92.9666 59.7951 92.7933 55.9712C92.7933 53.5379 95.2202 51.2783 97.8205 48.8449C100.421 46.4116 103.368 43.6306 104.408 39.9805M104.408 39.9805C104.581 39.1115 104.755 38.2424 104.755 37.1995C104.581 29.0304 96.7804 30.0732 91.2331 34.94C90.193 35.9828 86.726 34.7662 87.5927 31.6375C87.9394 30.7685 95.5669 11.3015 83.0856 11.6491C82.9122 11.6491 82.5655 11.6491 82.2188 11.6491C81.8721 11.6491 81.5254 11.6491 81.352 11.6491C69.044 12.1706 77.3649 31.1161 77.7116 31.9852C78.7518 35.1138 75.4581 36.3305 74.2446 35.4614C68.524 30.9423 60.7231 30.247 60.7231 38.2424C60.8965 47.2806 73.3778 50.9307 73.3778 56.4927C73.5512 61.8808 58.6429 52.6688 61.7632 63.2713C62.2833 65.1833 63.8434 66.9214 65.7503 68.3119M104.408 39.9805C106.488 41.1972 108.222 41.8925 108.915 40.1543C111.169 34.94 101.288 26.597 104.928 18.254C108.048 10.7801 114.982 14.604 118.276 21.2088C118.97 22.5993 122.437 22.7731 122.783 19.4707C122.957 18.6016 122.957 -2.25582 134.398 2.78473C134.571 2.78473 134.918 2.95854 135.265 3.13236C135.611 3.30617 135.958 3.47998 135.958 3.47998C147.399 8.34672 132.491 22.7731 131.798 23.4684C129.717 25.9017 132.318 28.3351 133.704 27.9875C140.812 25.9017 148.266 28.1613 145.146 35.6352C144.799 36.3305 144.452 36.8519 144.106 37.3733C142.719 39.2853 140.639 40.6758 138.558 41.5448C137.692 41.8925 136.825 42.2401 135.958 42.5877C134.398 43.1091 132.838 43.6306 131.278 44.152C129.024 45.0211 127.117 46.0639 126.25 47.8021C125.384 49.8878 127.81 50.5831 130.584 51.2783M139.772 121.498C139.945 121.498 140.118 121.498 140.292 121.325C147.226 119.934 148.613 125.67 146.533 131.406C146.186 132.275 145.839 133.144 145.319 134.013C144.626 135.23 146.359 138.358 149.306 136.794C149.653 136.62 151.56 135.403 153.987 134.187C156.067 133.144 158.667 132.101 161.094 131.579C162.828 131.232 164.388 131.232 165.948 131.753C167.855 132.449 169.242 134.013 169.762 136.968C169.762 137.141 169.935 137.489 169.935 137.837C169.935 138.184 170.108 138.532 170.108 138.706C172.015 148.092 160.227 147.744 154.333 147.049C152.6 146.875 151.386 146.527 151.213 146.527C148.093 146.18 147.573 149.656 148.613 150.525C151.56 152.958 153.64 156.261 153.813 159.042M111.862 93.3408C111.862 93.167 111.862 92.9932 112.035 92.8194C113.422 85.8669 107.702 84.4764 101.981 86.5622C101.114 86.9098 100.247 87.2574 99.3807 87.7788C98.1672 88.4741 95.0469 86.736 96.607 83.7812C96.7804 83.4335 97.9939 81.5216 99.2073 79.0882C100.247 77.0025 101.288 74.3953 101.808 71.9619C102.154 70.2238 102.154 68.6595 101.634 67.0952C100.941 65.1833 99.3807 63.7928 96.4337 63.2713C96.2603 63.2713 95.9136 63.0975 95.5669 63.0975C95.2202 63.0975 94.8735 62.9237 94.7002 62.9237C85.3391 61.0118 85.6858 72.831 86.3793 78.7406C86.5526 80.4787 86.8993 81.6954 86.8993 81.8692C87.246 84.9979 83.779 85.5193 82.9122 84.4764C80.4853 81.5216 77.1916 79.4359 74.4179 79.2621M85.6858 129.668C84.8191 130.015 83.779 130.015 82.7389 129.841L82.0454 129.668C80.3119 129.32 78.9251 128.277 78.0583 126.887C77.5383 126.018 77.0182 125.322 76.3248 124.453M131.971 90.0384C129.717 88.9955 127.984 87.9527 129.024 86.2145C131.278 82.5645 139.425 83.6074 145.146 80.6526C146.706 79.7835 148.266 78.5668 149.306 77.0025C152.773 71.4405 148.613 68.1381 143.065 67.6166C142.892 67.6166 142.719 67.6166 142.545 67.6166C141.505 67.6166 140.292 67.6166 139.078 67.7905C137.692 67.9643 135.438 65.1833 137.865 63.0975C138.558 62.4023 155.547 50.4092 144.799 43.8044C144.626 43.8044 144.452 43.4568 144.106 43.283C143.759 43.1091 143.412 42.9353 143.412 42.7615C141.679 41.7186 140.118 41.371 138.905 41.5448C138.038 41.7186 137.172 42.0663 136.305 42.5877C133.878 44.3258 132.144 47.9759 131.104 51.2783C130.064 54.5807 129.544 57.5355 129.544 57.8832C128.677 61.0118 125.384 60.3165 124.863 58.926C122.437 51.9736 116.196 47.1068 112.035 54.0593C109.782 57.8832 110.649 62.0547 111.689 66.0523C112.902 70.2238 114.289 74.0477 112.902 76.4811C110.649 80.1311 105.448 70.9191 101.981 72.3096M192.991 128.972C191.777 126.887 191.084 125.148 192.818 124.453C198.018 122.194 206.339 132.101 214.66 128.451C222.114 125.322 218.3 118.37 211.713 115.067C210.326 114.372 210.153 110.896 213.447 110.548C214.487 110.374 235.116 110.374 230.262 98.9028C230.262 98.729 230.088 98.3814 229.915 98.0338C229.742 97.6861 229.568 97.3385 229.568 97.3385C224.714 85.8669 210.326 100.815 209.633 101.51C207.206 103.596 204.779 100.989 205.126 99.5981C207.206 92.4718 204.952 84.9979 197.498 88.1265C196.805 88.4741 196.285 88.8217 195.765 89.1693C193.858 90.5598 192.471 92.6456 191.604 94.7313C191.257 95.6004 190.911 96.4694 190.564 97.3385C190.044 98.9028 189.524 100.467 189.004 102.031C188.137 104.291 187.097 106.203 185.363 107.072C183.283 107.941 182.59 105.508 181.896 102.727M185.71 61.3594C185.017 61.0118 184.15 60.838 183.283 60.838M171.842 47.4544C172.189 48.1497 172.362 49.0187 172.362 49.8878M188.484 74.5691C189.177 75.612 190.911 76.4811 192.471 74.9168C193.164 74.2215 207.553 59.2737 212.406 70.7453C212.406 70.9191 212.58 71.2667 212.753 71.4405C212.926 71.7881 213.1 72.1358 213.1 72.3096C217.954 83.7812 197.325 83.7812 196.285 83.955C193.164 84.3026 193.338 87.7788 194.551 88.4741C194.898 88.6479 195.245 88.8217 195.591 88.9955M158.667 44.6734C157.627 43.9782 156.76 42.2401 158.32 40.6758C159.014 39.9805 173.922 25.5541 162.481 20.6874C162.308 20.6874 161.961 20.5136 161.788 20.3398C161.441 20.1659 161.094 19.9921 160.921 19.9921C149.48 15.1254 149.48 35.809 149.306 36.8519C148.959 39.9805 145.492 39.8067 144.799 38.59C144.626 38.2424 144.452 37.8948 144.279 37.5471M66.4437 182.854L21.7188 227.698C19.6386 229.783 16.6916 231 13.5713 231C10.4509 231 7.67729 229.783 5.42371 227.698L5.25036 227.524C0.916548 223.178 0.916548 216.4 5.25036 212.054L50.4953 166.69M50.6687 198.845L34.7203 182.854M43.7346 205.797L27.7862 189.807M29.8664 219.528L14.0913 203.538M23.1056 226.481L7.15723 210.49M101.114 132.275C101.288 132.449 101.461 132.622 101.634 132.796C110.475 141.661 91.2331 149.482 90.3664 149.83C87.5927 151.394 88.9795 154.523 90.5397 154.697C97.8205 155.392 104.061 160.432 98.3406 165.994C91.9265 172.425 80.4853 166.516 76.4982 170.34C72.6844 174.163 89.8463 177.814 80.1386 183.202C74.938 186.156 66.2704 181.464 58.1228 181.811C56.3893 181.811 54.8291 181.29 53.6157 180.073L53.269 179.725C52.0555 178.509 51.3621 176.944 51.5354 175.206C51.8821 167.211 47.2016 158.347 50.1486 153.132C55.6959 143.573 59.3363 160.606 62.9767 156.782C66.9638 152.785 61.0698 141.313 67.3105 134.882C73.0311 129.146 77.885 135.23 78.5784 142.703C78.7518 144.094 81.8721 145.658 83.4323 142.877C83.9523 142.008 91.7532 122.715 100.421 131.579C100.594 131.927 100.767 132.101 101.114 132.275Z" stroke="url(#paint0_linear)" stroke-width="3" stroke-miterlimit="10" stroke-linecap="round" stroke-linejoin="round"/>
<defs>
<linearGradient id="paint0_linear" x1="116.5" y1="2" x2="334.238" y2="183.448" gradientUnits="userSpaceOnUse">
<stop stop-color="#F4A261"/>
<stop offset="1" stop-color="#E9C46A"/>
</linearGradient>
</defs>
</svg>
