<svg width="32" height="21" viewBox="0 0 32 21" fill="none" xmlns="http://www.w3.org/2000/svg">
<path d="M31.6304 9.20395C27.8574 2.57049 20.5619 -1.00473 13.1233 0.24769C7.5747 1.18701 3.34347 4.19427 0.422424 9.09473C-0.136012 10.0268 -0.143171 10.9515 0.415264 11.8763C3.9735 17.767 9.19989 20.716 15.9441 21C17.1039 20.9927 18.2494 20.8981 19.3663 20.6578C24.7215 19.5291 28.8239 16.5874 31.6232 11.7962C32.1244 10.937 32.1244 10.0632 31.6304 9.20395ZM15.8796 17.4757C12.1138 17.4466 9.09966 14.2573 9.12113 10.3326C9.14261 6.61173 12.2999 3.4734 16.0014 3.49524C19.8674 3.52437 22.8959 6.67727 22.8672 10.6384C22.8386 14.4175 19.6813 17.5049 15.8796 17.4757Z" fill="url(#paint0_linear)"/>
<path d="M16.0085 5.82533C18.5644 5.83261 20.5834 7.93697 20.5762 10.5874C20.5691 13.034 18.4714 15.1457 16.0515 15.1457C13.4526 15.1384 11.405 13.0704 11.4122 10.4491C11.4193 7.90784 13.4884 5.82533 16.0085 5.82533Z" fill="url(#paint1_linear)"/>
<defs>
<linearGradient id="paint0_linear" x1="16" y1="0" x2="35.7342" y2="25.0593" gradientUnits="userSpaceOnUse">
<stop stop-color="#F4A261"/>
<stop offset="1" stop-color="#E9C46A"/>
</linearGradient>
<linearGradient id="paint1_linear" x1="16" y1="0" x2="35.7342" y2="25.0593" gradientUnits="userSpaceOnUse">
<stop stop-color="#F4A261"/>
<stop offset="1" stop-color="#E9C46A"/>
</linearGradient>
</defs>
</svg>
